<svg xmlns="http://www.w3.org/2000/svg" width="82.915" height="82.915" viewBox="0 0 82.915 82.915">
  <defs>
    <style>
      .cls-1 {
        fill: #2e2828;
      }
    </style>
  </defs>
  <path id="github" class="cls-1" d="M41.458.5C18.552.5,0,19.534,0,43.01A42.424,42.424,0,0,0,28.347,83.342c2.073.4,2.833-.916,2.833-2.044,0-1.009-.035-3.684-.052-7.228-11.532,2.563-13.964-5.7-13.964-5.7-1.886-4.906-4.612-6.219-4.612-6.219-3.755-2.635.29-2.581.29-2.581,4.163.3,6.35,4.38,6.35,4.38,3.7,6.5,9.7,4.622,12.075,3.536A9.147,9.147,0,0,1,33.892,61.8c-9.207-1.063-18.884-4.719-18.884-21.006a16.63,16.63,0,0,1,4.267-11.406c-.466-1.074-1.866-5.4.363-11.251,0,0,3.472-1.139,11.4,4.358a38.152,38.152,0,0,1,20.729,0c7.877-5.5,11.349-4.358,11.349-4.358a15.9,15.9,0,0,1,.415,11.251A16.7,16.7,0,0,1,67.78,40.793c0,16.33-9.691,19.925-18.915,20.97,1.451,1.276,2.8,3.883,2.8,7.866,0,5.689-.052,10.26-.052,11.64,0,1.114.726,2.444,2.85,2.019A42.285,42.285,0,0,0,82.915,43.01C82.915,19.534,64.352.5,41.458.5Z" transform="translate(0 -0.5)"/>
</svg>
