<svg xmlns="http://www.w3.org/2000/svg" width="82.916" height="82.915" viewBox="0 0 82.916 82.915">
  <path id="linkedin" d="M41.458,0A41.458,41.458,0,1,0,82.916,41.458,41.462,41.462,0,0,0,41.458,0ZM29.411,62.672h-10.1V32.3h10.1ZM24.363,28.148H24.3A5.227,5.227,0,0,1,18.717,22.9c0-2.981,2.258-5.249,5.712-5.249s5.579,2.268,5.645,5.249C30.075,25.816,27.884,28.148,24.363,28.148ZM65.818,62.672h-10.1V46.422c0-4.084-1.462-6.869-5.115-6.869a5.527,5.527,0,0,0-5.18,3.692,6.914,6.914,0,0,0-.332,2.464V62.672H35s.132-27.527,0-30.377h10.1v4.3a10.024,10.024,0,0,1,9.1-5.014c6.643,0,11.624,4.342,11.624,13.672Zm0,0" fill="#2e2828"/>
</svg>
