<svg xmlns="http://www.w3.org/2000/svg" xmlns:xlink="http://www.w3.org/1999/xlink" width="157" height="157" viewBox="0 0 157 157">
  <defs>
    <filter id="Ellipse_11" x="0" y="0" width="157" height="157" filterUnits="userSpaceOnUse">
      <feOffset dy="3" input="SourceAlpha"/>
      <feGaussianBlur stdDeviation="3" result="blur"/>
      <feFlood flood-color="#3a3434" flood-opacity="0.102"/>
      <feComposite operator="in" in2="blur"/>
      <feComposite in="SourceGraphic"/>
    </filter>
  </defs>
  <g id="Group_298" data-name="Group 298" transform="translate(-1012 -512)">
    <g transform="matrix(1, 0, 0, 1, 1012, 512)" filter="url(#Ellipse_11)">
      <circle id="Ellipse_11-2" data-name="Ellipse 11" cx="69.5" cy="69.5" r="69.5" transform="translate(9 6)" fill="#fefefe"/>
    </g>
    <g id="Group_297" data-name="Group 297">
      <path id="Path_287" data-name="Path 287" d="M8.776,0H52.432A4.366,4.366,0,0,1,56.8,4.365V39.29a4.366,4.366,0,0,1-4.365,4.365H8.776A4.366,4.366,0,0,1,4.411,39.29V4.365A4.365,4.365,0,0,1,8.776,0Z" transform="translate(1054.715 556.126)" fill="#8aace0"/>
      <rect id="Rectangle_28" data-name="Rectangle 28" width="2.183" height="2.183" transform="translate(1062.4 559.4)" fill="#5161ce"/>
      <rect id="Rectangle_29" data-name="Rectangle 29" width="2.183" height="2.183" transform="translate(1066.766 559.4)" fill="#5161ce"/>
      <rect id="Rectangle_30" data-name="Rectangle 30" width="2.183" height="2.183" transform="translate(1071.131 559.4)" fill="#92ce51"/>
      <path id="Path_288" data-name="Path 288" d="M61.742,70.621H105.4a4.366,4.366,0,0,1,4.365,4.365v34.924a4.366,4.366,0,0,1-4.365,4.365H61.742a4.366,4.366,0,0,1-4.365-4.365V74.986A4.365,4.365,0,0,1,61.742,70.621Z" transform="translate(1008.297 494.236)" fill="#5161ce"/>
      <path id="Path_289" data-name="Path 289" d="M173.916,70.621h-5.185c-7.822,24.9-22.8,37.491-33.169,43.655h38.354a4.366,4.366,0,0,0,4.365-4.365V74.986A4.366,4.366,0,0,0,173.916,70.621Z" transform="translate(939.778 494.236)" fill="#351fbb"/>
      <rect id="Rectangle_31" data-name="Rectangle 31" width="2.183" height="2.183" transform="translate(1068.948 568.131)" fill="#351fbb"/>
      <rect id="Rectangle_32" data-name="Rectangle 32" width="2.183" height="2.183" transform="translate(1073.313 568.131)" fill="#351fbb"/>
      <rect id="Rectangle_33" data-name="Rectangle 33" width="2.183" height="2.183" transform="translate(1077.679 568.131)" fill="#92ce51"/>
      <rect id="Rectangle_34" data-name="Rectangle 34" width="45.838" height="2.183" transform="translate(1068.948 599.781)" fill="#8aace0"/>
      <rect id="Rectangle_35" data-name="Rectangle 35" width="2.183" height="6.548" transform="translate(1071.131 591.051)" fill="#8aace0"/>
      <rect id="Rectangle_36" data-name="Rectangle 36" width="2.183" height="13.097" transform="translate(1075.497 584.502)" fill="#8aace0"/>
      <rect id="Rectangle_37" data-name="Rectangle 37" width="2.183" height="9.822" transform="translate(1079.862 587.776)" fill="#8aace0"/>
      <rect id="Rectangle_38" data-name="Rectangle 38" width="2.183" height="17.462" transform="translate(1084.228 580.137)" fill="#8aace0"/>
      <rect id="Rectangle_39" data-name="Rectangle 39" width="2.183" height="19.645" transform="translate(1088.593 577.954)" fill="#8aace0"/>
      <rect id="Rectangle_40" data-name="Rectangle 40" width="2.183" height="7.64" transform="translate(1092.958 579.045)" fill="#8aace0"/>
      <rect id="Rectangle_41" data-name="Rectangle 41" width="2.183" height="12.005" transform="translate(1097.324 574.68)" fill="#8aace0"/>
      <rect id="Rectangle_42" data-name="Rectangle 42" width="2.183" height="14.188" transform="translate(1101.689 572.497)" fill="#8aace0"/>
      <rect id="Rectangle_43" data-name="Rectangle 43" width="2.183" height="20.736" transform="translate(1106.055 576.862)" fill="#8aace0"/>
      <rect id="Rectangle_44" data-name="Rectangle 44" width="2.183" height="16.371" transform="translate(1110.421 581.229)" fill="#8aace0"/>
      <rect id="Rectangle_45" data-name="Rectangle 45" width="4.631" height="18.522" transform="translate(1121.344 616.159) rotate(135)" fill="#3a3434"/>
      <rect id="Rectangle_46" data-name="Rectangle 46" width="4.631" height="6.174" transform="translate(1112.605 607.425) rotate(135)" fill="#514d4d"/>
      <circle id="Ellipse_14" data-name="Ellipse 14" cx="14.188" cy="14.188" r="14.188" transform="translate(1084.228 583.41)" fill="#3a3434"/>
      <circle id="Ellipse_15" data-name="Ellipse 15" cx="9.822" cy="9.822" r="9.822" transform="translate(1088.593 587.776)" fill="#8aace0"/>
      <path id="Path_290" data-name="Path 290" d="M244.8,353.1a9.692,9.692,0,0,0,.781,2.183h17.578a9.7,9.7,0,0,0,.782-2.183Z" transform="translate(844.05 246.678)" fill="#5161ce"/>
      <path id="Path_291" data-name="Path 291" d="M315.559,265.821v-9.758a9.243,9.243,0,0,0-2.183,0v9.758Z" transform="translate(783.948 331.777)" fill="#5161ce"/>
      <path id="Path_292" data-name="Path 292" d="M280.249,269.869v-9.252a9.772,9.772,0,0,0-2.183,1.086v8.166Z" transform="translate(814.893 327.729)" fill="#5161ce"/>
      <path id="Path_293" data-name="Path 293" d="M350.87,269.869V261.7a9.772,9.772,0,0,0-2.183-1.086v9.252Z" transform="translate(753.003 327.729)" fill="#5161ce"/>
      <path id="Path_294" data-name="Path 294" d="M244.939,285.564a9.776,9.776,0,0,0-2.183,6.167h2.183Z" transform="translate(845.837 305.867)" fill="#5161ce"/>
      <path id="Path_295" data-name="Path 295" d="M384,291.73h2.183A9.777,9.777,0,0,0,384,285.563Z" transform="translate(722.058 305.867)" fill="#5161ce"/>
    </g>
  </g>
</svg>
