<svg xmlns="http://www.w3.org/2000/svg" width="658.289" height="403.611" viewBox="0 0 658.289 403.611">
  <g id="Layer_2" data-name="Layer 2" transform="translate(-0.001 -0.013)" opacity="0.1">
    <g id="_лой_1" data-name="‘лой_1" transform="translate(0.001 0.013)">
      <path id="Path_52" data-name="Path 52" d="M142.127,403.624l209.917-1.089L408,402.519h18.537L482.6,402.5l256.123-.07s58.582-75.122-3.995-146.472c-64.88-73.981-96.418-13.727-116.372-117.865C568.154-124,71.833,28.543,202.014,251.586,248.889,331.9,109.737,289.21,142.127,403.624Z" transform="translate(-105.324 -0.013)" fill="#fefefe" opacity="0.35"/>
      <path id="Path_53" data-name="Path 53" d="M981.947,1453.321l-1.133-.623a2.509,2.509,0,0,1-1-3.4l5.216-9.522a2.506,2.506,0,0,1,3.4-.994l1.626.89a.49.49,0,0,1-.465.862l-1.625-.892a1.528,1.528,0,0,0-2.071.606l-5.214,9.522a1.526,1.526,0,0,0,.6,2.069l1.136.623a1.526,1.526,0,0,0,2.069-.606l3.462-6.322a.49.49,0,1,1,.859.465l-3.46,6.322a2.51,2.51,0,0,1-3.407,1Z" transform="translate(-752.032 -1104.41)" fill="#351fbb"/>
      <path id="Path_54" data-name="Path 54" d="M955.979,1467.152l-2.035-1.112a4.059,4.059,0,0,1-1.416-5.549l7.84-14.318a.49.49,0,1,1,.859.465l-7.847,14.324a3.078,3.078,0,0,0,1.027,4.215l2.037,1.115a3.083,3.083,0,0,0,4.1-1.393l8.932-16.31a3.078,3.078,0,0,0-1.026-4.215.49.49,0,0,1,.464-.862,4.059,4.059,0,0,1,1.417,5.548l-8.929,16.308A4.046,4.046,0,0,1,955.979,1467.152Z" transform="translate(-730.897 -1108.242)" fill="#351fbb"/>
      <path id="Rectangle_14" data-name="Rectangle 14" d="M10,0H272.005a0,0,0,0,1,0,0V184a47.87,47.87,0,0,1-47.87,47.87H47.87A47.87,47.87,0,0,1,0,184V10A10,10,0,0,1,10,0Z" transform="translate(160.213 64.071)" fill="#fefefe" opacity="0.6"/>
      <path id="Path_55" data-name="Path 55" d="M698.17,275.9H953.576a8.3,8.3,0,0,1,8.3,8.3v17.418H689.87V284.2a8.3,8.3,0,0,1,8.3-8.3Z" transform="translate(-529.657 -211.829)" fill="#8aace0"/>
      <path id="Path_56" data-name="Path 56" d="M737.24,320.447a3.077,3.077,0,1,1,3.075,3.077A3.077,3.077,0,0,1,737.24,320.447Z" transform="translate(-566.026 -243.668)" fill="#351fbb"/>
      <path id="Path_57" data-name="Path 57" d="M792.83,320.447a3.077,3.077,0,1,1,3.077,3.077A3.077,3.077,0,0,1,792.83,320.447Z" transform="translate(-608.706 -243.668)" fill="#351fbb"/>
      <path id="Path_58" data-name="Path 58" d="M848.42,320.447a3.077,3.077,0,1,1,3.077,3.077A3.077,3.077,0,0,1,848.42,320.447Z" transform="translate(-651.385 -243.668)" fill="#351fbb"/>
      <rect id="Rectangle_15" data-name="Rectangle 15" width="77.105" height="77.105" transform="translate(181.769 110.214)" fill="#351fbb" opacity="0.5"/>
      <path id="Path_59" data-name="Path 59" d="M1256.689,480.077h-61.324a2.915,2.915,0,0,1-2.915-2.914h0a2.912,2.912,0,0,1,2.915-2.912h61.329a2.912,2.912,0,0,1,2.915,2.912h0a2.914,2.914,0,0,1-2.919,2.914Z" transform="translate(-915.519 -364.115)" fill="#8aace0" opacity="0.5"/>
      <path id="Path_60" data-name="Path 60" d="M1572.474,463.278h-61.331a2.914,2.914,0,0,1-2.912-2.905h0a2.914,2.914,0,0,1,2.912-2.912h61.331a2.915,2.915,0,0,1,2.915,2.912h0A2.915,2.915,0,0,1,1572.474,463.278Z" transform="translate(-1157.963 -351.224)" fill="#8aace0" opacity="0.5"/>
      <g id="Group_36" data-name="Group 36" transform="translate(276.926 134.618)" opacity="0.3">
        <path id="Path_61" data-name="Path 61" d="M1268.816,583.446h-74.5a1.889,1.889,0,0,1-1.888-1.888h0a1.888,1.888,0,0,1,1.888-1.888h74.5a1.888,1.888,0,0,1,1.888,1.888h0A1.888,1.888,0,0,1,1268.816,583.446Z" transform="translate(-1192.43 -579.67)" fill="#351fbb"/>
        <path id="Path_62" data-name="Path 62" d="M1572.024,583.446h-19.666a1.888,1.888,0,0,1-1.888-1.888h0a1.888,1.888,0,0,1,1.888-1.888h19.666a1.888,1.888,0,0,1,1.888,1.888h0A1.888,1.888,0,0,1,1572.024,583.446Z" transform="translate(-1467.32 -579.67)" fill="#351fbb"/>
        <path id="Path_63" data-name="Path 63" d="M1222.449,633.886h-28.1A1.888,1.888,0,0,1,1192.46,632h0a1.888,1.888,0,0,1,1.888-1.888h28.1a1.891,1.891,0,0,1,1.89,1.888h0a1.891,1.891,0,0,1-1.89,1.888Z" transform="translate(-1192.453 -618.396)" fill="#351fbb"/>
        <path id="Path_64" data-name="Path 64" d="M1384.055,633.886h-38.516A1.888,1.888,0,0,1,1343.65,632h0a1.888,1.888,0,0,1,1.888-1.888h38.516a1.888,1.888,0,0,1,1.888,1.888h0A1.888,1.888,0,0,1,1384.055,633.886Z" transform="translate(-1308.531 -618.396)" fill="#351fbb"/>
        <path id="Path_65" data-name="Path 65" d="M1572.024,633.886h-19.666A1.888,1.888,0,0,1,1550.47,632h0a1.888,1.888,0,0,1,1.888-1.888h19.666a1.888,1.888,0,0,1,1.888,1.888h0A1.888,1.888,0,0,1,1572.024,633.886Z" transform="translate(-1467.32 -618.396)" fill="#351fbb"/>
        <path id="Path_66" data-name="Path 66" d="M1232.459,677.516h-38.141a1.888,1.888,0,0,1-1.888-1.888h0a1.888,1.888,0,0,1,1.888-1.888h38.141a1.888,1.888,0,0,1,1.888,1.888h0A1.888,1.888,0,0,1,1232.459,677.516Z" transform="translate(-1192.43 -651.893)" fill="#351fbb"/>
        <path id="Path_67" data-name="Path 67" d="M1465.937,677.516h-62.378a1.888,1.888,0,0,1-1.889-1.888h0a1.888,1.888,0,0,1,1.889-1.888h62.378a1.887,1.887,0,0,1,1.888,1.888h0A1.888,1.888,0,0,1,1465.937,677.516Z" transform="translate(-1353.076 -651.893)" fill="#351fbb"/>
      </g>
      <g id="Group_37" data-name="Group 37" transform="translate(276.926 171.829)" opacity="0.3">
        <path id="Path_68" data-name="Path 68" d="M1268.816,743.676h-74.5a1.889,1.889,0,0,1-1.888-1.888h0a1.888,1.888,0,0,1,1.888-1.888h74.5a1.888,1.888,0,0,1,1.888,1.888h0A1.888,1.888,0,0,1,1268.816,743.676Z" transform="translate(-1192.43 -739.9)" fill="#351fbb"/>
        <path id="Path_69" data-name="Path 69" d="M1572.024,743.676h-19.666a1.888,1.888,0,0,1-1.888-1.888h0a1.888,1.888,0,0,1,1.888-1.888h19.666a1.888,1.888,0,0,1,1.888,1.888h0A1.888,1.888,0,0,1,1572.024,743.676Z" transform="translate(-1467.32 -739.9)" fill="#351fbb"/>
        <path id="Path_70" data-name="Path 70" d="M1222.449,794.116h-28.1a1.888,1.888,0,0,1-1.888-1.888h0a1.888,1.888,0,0,1,1.888-1.888h28.1a1.891,1.891,0,0,1,1.89,1.888h0A1.891,1.891,0,0,1,1222.449,794.116Z" transform="translate(-1192.453 -778.626)" fill="#351fbb"/>
        <path id="Path_71" data-name="Path 71" d="M1384.055,794.116h-38.516a1.888,1.888,0,0,1-1.888-1.888h0a1.888,1.888,0,0,1,1.888-1.888h38.516a1.888,1.888,0,0,1,1.888,1.888h0A1.888,1.888,0,0,1,1384.055,794.116Z" transform="translate(-1308.531 -778.626)" fill="#351fbb"/>
      </g>
      <path id="Path_72" data-name="Path 72" d="M860.432,524.08H868.4l21.515,49.234H880.83l-4.965-11.793H852.75l-5.03,11.8h-8.8Zm12.295,29.826-8.451-19.557-8.384,19.557Z" transform="translate(-644.092 -402.372)" fill="#8aace0"/>
      <rect id="Rectangle_16" data-name="Rectangle 16" width="43.071" height="8.314" transform="translate(181.769 202.852)" fill="#351fbb"/>
      <rect id="Rectangle_17" data-name="Rectangle 17" width="43.071" height="8.314" transform="translate(181.769 211.166)" fill="#958ad9"/>
      <rect id="Rectangle_18" data-name="Rectangle 18" width="43.071" height="8.314" transform="translate(181.769 219.482)" fill="#514d4d"/>
      <path id="Path_73" data-name="Path 73" d="M1020.5,881.865H996.814a1.8,1.8,0,0,1-1.814-1.8h0a1.8,1.8,0,0,1,1.795-1.8h23.688a1.8,1.8,0,0,1,1.8,1.8h0A1.8,1.8,0,0,1,1020.5,881.865Z" transform="translate(-763.924 -674.306)" fill="#8aace0"/>
      <path id="Path_74" data-name="Path 74" d="M1012.541,909.13H996.825a1.8,1.8,0,0,1-1.8-1.8h0a1.8,1.8,0,0,1,1.8-1.8h15.715a1.8,1.8,0,0,1,1.8,1.8h0A1.8,1.8,0,0,1,1012.541,909.13Z" transform="translate(-763.948 -695.243)" fill="#8aace0"/>
      <rect id="Rectangle_19" data-name="Rectangle 19" width="43.071" height="16.99" transform="translate(181.769 245.843)" fill="#351fbb"/>
      <rect id="Rectangle_20" data-name="Rectangle 20" width="43.071" height="12.151" transform="translate(181.769 258.637)" fill="#958ad9"/>
      <path id="Path_75" data-name="Path 75" d="M782.69,1058.6l15.453,12.979-15.453,11.968Z" transform="translate(-600.921 -812.757)" fill="#514d4d"/>
      <path id="Path_76" data-name="Path 76" d="M1020.563,1067H996.875a1.8,1.8,0,0,1-1.8-1.8h0a1.8,1.8,0,0,1,1.8-1.8h23.688a1.8,1.8,0,0,1,1.8,1.8h0A1.8,1.8,0,0,1,1020.563,1067Z" transform="translate(-763.986 -816.45)" fill="#8aace0"/>
      <path id="Path_77" data-name="Path 77" d="M1012.541,1094.253H996.825a1.8,1.8,0,0,1-1.8-1.8h0a1.8,1.8,0,0,1,1.8-1.8h15.715a1.8,1.8,0,0,1,1.8,1.8h0A1.8,1.8,0,0,1,1012.541,1094.253Z" transform="translate(-763.948 -837.371)" fill="#8aace0"/>
      <path id="Path_78" data-name="Path 78" d="M1670.087,284.689s1.122,13.37-1.925,13.168-9.057-6.087-21.2-5.13-26.986,3.611-35.962-12.271S1622.493,260,1622.493,260l47.609,24.689Z" transform="translate(-1235.121 -199.621)" fill="#3a3434"/>
      <path id="Path_79" data-name="Path 79" d="M1574.846,203.78,1636,208.808l1.273-2.72-58.631-43.277-59.223-6.921-1.138,2.436,56.566,45.453Z" transform="translate(-1165.679 -119.69)" fill="#514d4d"/>
      <path id="Path_80" data-name="Path 80" d="M1925.673,554.724a2.371,2.371,0,1,0-1.625,2.931A2.371,2.371,0,0,0,1925.673,554.724Z" transform="translate(-1474.889 -424.579)" fill="#92ce51"/>
      <path id="Path_81" data-name="Path 81" d="M1918.213,563.236c2.454-.19,3.018,22.128,3.018,22.128a5.431,5.431,0,0,1-2.385.576c-.787-.177-1.187-3.191-1.187-3.191l-.076,3.161s-2.69.093-3.623-.562c0,0,.364-21.807,4.245-22.111Z" transform="translate(-1469.468 -432.434)" fill="#92ce51"/>
      <path id="Path_82" data-name="Path 82" d="M1823.811,325.315l-.444-48.76-.316-.237-31.944-23.628-1.148,1.551,31.626,23.393.713,47.595Z" transform="translate(-1374.265 -194.009)" fill="#92ce51"/>
      <path id="Path_83" data-name="Path 83" d="M1534.69,1336.17h134.793a19.727,19.727,0,0,1,19.727,19.726v11.147a20.174,20.174,0,0,1-20.175,20.174H1534.69Z" transform="translate(-1178.278 -1025.865)" fill="#f5f5f5"/>
      <path id="Path_84" data-name="Path 84" d="M1780.794,1357.087v7.678a23.436,23.436,0,0,1-2.833,11.249,20.674,20.674,0,0,1-18.063,11.113H1506.889a3.134,3.134,0,0,1-3.019-3.251v-1.161a3.149,3.149,0,0,1,3.019-3.252h154.236a21.144,21.144,0,0,0,2.165-3.483,21.926,21.926,0,0,0,2.26-9.754v-9.754a21.661,21.661,0,0,0-.625-5.193,20.905,20.905,0,0,0-3.568-7.568H1506.889a3.134,3.134,0,0,1-3.019-3.252v-1.147a3.148,3.148,0,0,1,3.019-3.251h254.284c8.962,0,16.519,6.43,18.865,15.216A22.352,22.352,0,0,1,1780.794,1357.087Z" transform="translate(-1154.616 -1025.781)" fill="#958ad9"/>
      <path id="Path_85" data-name="Path 85" d="M1780.03,1351.3H1664.922a20.9,20.9,0,0,0-3.565-7.589H1506.889a3.134,3.134,0,0,1-3.019-3.252v-1.147a3.148,3.148,0,0,1,3.019-3.251h254.284C1770.135,1336.084,1777.692,1342.514,1780.03,1351.3Z" transform="translate(-1154.616 -1025.781)" fill="#7970b2"/>
      <path id="Path_86" data-name="Path 86" d="M1534.69,1446.06l18.735.859-18.735.516Z" transform="translate(-1178.278 -1110.234)" fill="#cecac2"/>
      <path id="Path_87" data-name="Path 87" d="M1534.69,1480.55l44.569.857-44.569.518Z" transform="translate(-1178.278 -1136.715)" fill="#cecac2"/>
      <path id="Path_88" data-name="Path 88" d="M0,.028H131.883a19.043,19.043,0,0,1,19.043,19.043V21.83a17.882,17.882,0,0,1-17.882,17.882H0V.028Z" transform="translate(468.664 400.973) rotate(180)" fill="#351fbb"/>
      <path id="Path_89" data-name="Path 89" d="M0,.009H150.311a18.6,18.6,0,0,1,18.6,18.6v2.91a18.191,18.191,0,0,1-18.191,18.191H0V0Z" transform="translate(612.62 400.954) rotate(180)" fill="#f5f5f5"/>
      <rect id="Rectangle_21" data-name="Rectangle 21" width="189.438" height="5.938" rx="2.969" transform="translate(620.449 400.945) rotate(180)" fill="#351fbb"/>
      <rect id="Rectangle_22" data-name="Rectangle 22" width="189.438" height="5.938" rx="2.969" transform="translate(620.449 367.18) rotate(180)" fill="#351fbb"/>
      <path id="Path_90" data-name="Path 90" d="M2570.189,1640.97l-20.479.669,20.479.4Z" transform="translate(-1957.573 -1259.879)" fill="#cecac2"/>
      <path id="Path_91" data-name="Path 91" d="M2476.829,1601.63l-48.718.666,48.718.4Z" transform="translate(-1864.214 -1229.675)" fill="#cecac2"/>
      <path id="Path_92" data-name="Path 92" d="M2430.271,1603.931a9.216,9.216,0,0,1,2.787,4.51,7.189,7.189,0,0,1,.216,1.57c.116,3.715,0,12.155,0,12.155l6.165-4.215,6.148,4.215V1610.74a10.063,10.063,0,0,0-1.508-5.641,2.267,2.267,0,0,0-1.7-1.161Z" transform="translate(-1865.872 -1231.442)" fill="#958ad9"/>
      <path id="Path_93" data-name="Path 93" d="M2430.271,1603.931a9.216,9.216,0,0,1,2.787,4.51l12.352.167s-.484-4.015-3.032-4.677Z" transform="translate(-1865.872 -1231.442)" fill="#351fbb"/>
      <path id="Path_94" data-name="Path 94" d="M1388.72,1085.45H1519a20.857,20.857,0,0,1,20.857,20.857v16.148a21.329,21.329,0,0,1-21.329,21.328H1388.72Z" transform="translate(-1066.208 -833.371)" fill="#f5f5f5"/>
      <path id="Path_95" data-name="Path 95" d="M1516.756,1108.069v12.561a15.146,15.146,0,0,1-6.17,12.5,10.786,10.786,0,0,1-6.083,1.918h-142.93a3.37,3.37,0,0,0-3.033,3.623v1.466a3.368,3.368,0,0,0,3.033,3.623h246.915c7.085,0,13.344-4.206,17.127-10.644a28.3,28.3,0,0,0,3.783-14.331v-9.9a27.162,27.162,0,0,0-1.948-10.2c-3.177-7.843-9.9-13.252-17.685-13.252H1361.573a3.369,3.369,0,0,0-3.033,3.619v1.481a3.368,3.368,0,0,0,3.033,3.623H1504.94a11.066,11.066,0,0,1,8.7,4.529A15.452,15.452,0,0,1,1516.756,1108.069Z" transform="translate(-1043.037 -833.356)" fill="#8aace0"/>
      <path id="Path_96" data-name="Path 96" d="M1358.54,1296.318v1.472a3.367,3.367,0,0,0,3.033,3.623h246.915c7.085,0,13.344-4.206,17.127-10.643h-115.03a10.783,10.783,0,0,1-6.082,1.918h-142.93A3.373,3.373,0,0,0,1358.54,1296.318Z" transform="translate(-1043.037 -991.008)" fill="#7b9bcb"/>
      <path id="Path_97" data-name="Path 97" d="M1388.72,1211.04l18.324.98-18.324.592Z" transform="translate(-1066.208 -929.795)" fill="#cecac2"/>
      <path id="Path_98" data-name="Path 98" d="M1388.72,1153.24l43.593.98-43.593.59Z" transform="translate(-1066.208 -885.418)" fill="#cecac2"/>
      <path id="Path_99" data-name="Path 99" d="M1504.762,1156.62a10.279,10.279,0,0,0-3.83,4.891,6.378,6.378,0,0,0-.3,1.7c-.159,4.039,0,13.182,0,13.182l-8.493-4.571-8.473,4.571V1164a9.234,9.234,0,0,1,2.077-6.115,3.288,3.288,0,0,1,2.346-1.268Z" transform="translate(-1139.107 -888.013)" fill="#92ce51"/>
      <path id="Path_100" data-name="Path 100" d="M1505.56,1156.62a10.284,10.284,0,0,0-3.829,4.891l-17.021.181s.67-4.355,4.181-5.072Z" transform="translate(-1139.905 -888.013)" fill="#83ba46"/>
      <g id="girl_2" data-name="girl 2" transform="translate(102.193 262.124)">
        <path id="Path_101" data-name="Path 101" d="M622.111,1314.41s26.605,11.594,31.436,11.38,34.59-9.057,34.59-9.057l-.757,5.109s-22.966,13.21-31,13.959c-7.9.737-34.936-7.094-37.546-8.75S614.526,1316.085,622.111,1314.41Z" transform="translate(-575.617 -1271.282)" fill="#d1beb4"/>
        <path id="Path_102" data-name="Path 102" d="M482.529,1129.189s-9.814-1.858-14.7,1.7c-8.851,6.473-9.327,28.768-12.645,32.084s-11.319,1.9-12.032,19.088,3.186,18.623-1.456,26.294,1.962,15.349,1.962,15.349-2.7-4.234-1.535-7.29c0,0,1.126,6.734,5.411,8.325s4.919,2.741,5.6,5.061c0,0,36.561-18.734,36.6-32.023s7.2-26.45,3.681-32.206a12.709,12.709,0,0,1,1.756,5.2,6.849,6.849,0,0,0-1.544-7.8c-3.653-3.76,4.285-11.542,3.11-20.555C495.92,1136.235,491.586,1129.47,482.529,1129.189Z" transform="translate(-440.038 -1128.705)" fill="#cc4b42"/>
        <path id="Path_103" data-name="Path 103" d="M554.973,1276.684a25.53,25.53,0,0,1-8.946,3.806c-13.788,3.184-19.071-8.468-21.057-16.468a11.887,11.887,0,0,1,4.673-1.435c1-.116,2.044-.195,2.912-.232,1.549-1.185,3.855-6.038,4.366-13.574l.648.174,10.864,2.968s-.5,3.454-.741,6.719c-.19,2.555-.218,5,.265,5.594.848.183,1.356.3,1.356.3h0A69.924,69.924,0,0,1,554.973,1276.684Z" transform="translate(-505.246 -1220.894)" fill="#f4dbcb"/>
        <path id="Path_104" data-name="Path 104" d="M590.076,1252.485s-.5,3.452-.741,6.719c-6.157-.618-9.013-6.477-10.126-9.693Z" transform="translate(-546.889 -1221.455)" fill="#d1beb4"/>
        <path id="Path_105" data-name="Path 105" d="M587.674,1193.332s-14.612-.806-13.972-9.9-.81-15.328,8.547-15.191,10.915,3.716,11.447,6.816S591.492,1193.306,587.674,1193.332Z" transform="translate(-542.645 -1159.059)" fill="#f4dbcb"/>
        <path id="Path_106" data-name="Path 106" d="M578.528,1163.781c-2.06-2.9-3.809-2.417-4.821-1.665a10.23,10.23,0,0,0-13.27,1.161,17.4,17.4,0,0,1-6.417,9.852s2.555,1.835,8.788.7a10.463,10.463,0,0,0,5.214-3.073,34.1,34.1,0,0,1-6.373,6.735c7.569-2.861,11.24-12.838,11.612-13.895a11.47,11.47,0,0,1,2.878,4.47c.562,2.367,2.984,6.069,4.384,6.005C580.523,1174.071,581.617,1168.126,578.528,1163.781Z" transform="translate(-527.549 -1152.869)" fill="#cc4b42"/>
        <path id="Path_107" data-name="Path 107" d="M480.341,1346.186c-1.319-6.734-5.622-33.7-1.319-42.369,1.544-3.117,7.608-3.4,14.262-3.124,2.069,1.338,9.958,6.386,13.2,5.757l.181-.044c1.526-.381,2.1-1.452.829-2.376a29.011,29.011,0,0,1,7.387.464c2.322.434,8.544,3.66,8.544,3.66s-3.14,5.672-7.768,7.629c.787,7.042-.383,10.146-7.687,26.41-6.173,13.746.834,26.122.834,26.122s-36.336,29.216-36.538,14.341C472.111,1371.446,482.028,1354.814,480.341,1346.186Z" transform="translate(-464.779 -1260.689)" fill="#f5f5f5"/>
        <path id="Path_108" data-name="Path 108" d="M563.671,1464.661a6.754,6.754,0,0,0,4.861-2.956l.562-.848c4.134-6.27,5.743-25.435,15.047-45.862,2.266-4.973,10.4-5.866,12.618-11.489,0,0,5.46-18.221-10.451-18.76s-42.6,50.7-43.024,56.074C542.876,1446.027,532.769,1468.15,563.671,1464.661Z" transform="translate(-517.848 -1325.281)" fill="#351fbb"/>
        <path id="Path_109" data-name="Path 109" d="M833.955,1688.237H811.314s-.847-3.611.639-6.068c1.317-2.173.813-3.414-.162-5.211a8.789,8.789,0,0,0,3.813.717,7.946,7.946,0,0,0,3.367-1.184c.973,1.11,5.147,5.841,6.452,6.777C826.9,1684.331,833.5,1683.952,833.955,1688.237Z" transform="translate(-724.906 -1549.274)" fill="#3a3434"/>
        <path id="Path_110" data-name="Path 110" d="M717.2,1387.641c1.364,10.219,6.689,42.484,16.08,58.223,3.019,5.074-7.629,7.919-7.687,7.9-1.428-.374-3.809-2.652-4.907-3.641-7.624-6.872-23.1-26.329-23.1-41.928,0-7.608-.132-22.135,5.4-25.827C706.383,1380.107,716.655,1383.591,717.2,1387.641Z" transform="translate(-637.768 -1322.909)" fill="#8aace0"/>
        <path id="Path_111" data-name="Path 111" d="M493.092,1460.405s.839-1.161,2.3-3.386c1.742-2.636,3.667-7.826,6.006-14.48,2.455-6.983,5.37-15.576,9.011-24.517,1.122-2.759,2.322-5.553,3.586-8.342,2.264-4.972,8.5-4.285,10.718-9.907,0,0,8.653-19.49-7.255-20.026s-46.136,52.135-47.873,57.235C467.686,1442.567,458.408,1465.756,493.092,1460.405Z" transform="translate(-460.77 -1321.443)" fill="#351fbb"/>
        <path id="Path_112" data-name="Path 112" d="M762.379,1688.237H739.745s-.848-3.611.639-6.068c1.317-2.173.813-3.414-.163-5.211a8.79,8.79,0,0,0,3.813.717,7.947,7.947,0,0,0,3.367-1.184c.975,1.11,5.146,5.841,6.451,6.777C755.332,1684.331,761.93,1683.952,762.379,1688.237Z" transform="translate(-669.957 -1549.274)" fill="#514d4d"/>
        <path id="Path_113" data-name="Path 113" d="M608.217,1519.183c2.455-6.983,5.369-15.576,9.011-24.517-.952-6.772-3-12.7-6.452-15.1C610.772,1479.579,602.411,1505.5,608.217,1519.183Z" transform="translate(-567.585 -1398.087)" fill="#8aace0"/>
        <path id="Path_114" data-name="Path 114" d="M649.024,1388.264c1.363,10.219,3.284,43.2,12.675,58.946,3.019,5.075-7.629,7.92-7.685,7.9-1.431-.374-3.811-2.652-4.909-3.642C641.481,1444.6,626,1425.144,626,1409.556c0-7.608,8.927-21.524,14.459-25.216A5.555,5.555,0,0,1,649.024,1388.264Z" transform="translate(-582.813 -1324.256)" fill="#351fbb"/>
        <path id="Path_115" data-name="Path 115" d="M628.289,1252.671s-1.393-.546-5.269-.232c0,0,.207,1.517,3.072,1.665A2.281,2.281,0,0,0,628.289,1252.671Z" transform="translate(-580.525 -1223.629)" fill="#fefefe"/>
        <path id="Path_116" data-name="Path 116" d="M887.679,1250.27l-4.693-8.47-10.156,28.338,5.992,6.431Z" transform="translate(-772.32 -1215.535)" fill="#3a3434"/>
        <path id="Path_117" data-name="Path 117" d="M800.028,1283.231,790.59,1310.2l25.091-5.627,8.857-26.3Z" transform="translate(-709.179 -1243.536)" fill="#514d4d"/>
        <path id="Path_118" data-name="Path 118" d="M791.289,1322.979l-.439-.769,8.932-25.521.446.683Z" transform="translate(-709.379 -1257.678)" fill="#cecac2"/>
        <path id="Path_119" data-name="Path 119" d="M829.31,1281.389l23.788-4.629,1.168.351-24.51,4.961Z" transform="translate(-738.907 -1242.376)" fill="#f7f3e9"/>
        <path id="Path_120" data-name="Path 120" d="M909.292,1251.637l-5.077-8.057-3.235,9.094,7.143-1.389Z" transform="translate(-793.932 -1216.902)" fill="#f7f3e9"/>
        <path id="Path_121" data-name="Path 121" d="M585.188,1303.685c-.817-.156-2.555-.816-4.341-1.3a3.615,3.615,0,0,0,1.282-1.435c.318-1,.527-1.319-.525-1s-4.742,2.009-4.742,2.009h0c-2.09.61-4.027,3.574-4.027,3.574s-25.941,9.118-29.062,9.276c-4.828.232-36.965-11.594-36.965-11.594-7.583,1.675-5.883,10.992-3.272,12.645s25.734,10.068,39.438,10.219c6.942.079,32.191-16.148,32.191-16.148s2.952-1.349,5.269-.928,7.694,0,8.855-1.9S586.558,1303.95,585.188,1303.685Z" transform="translate(-487.093 -1260.085)" fill="#f4dbcb"/>
        <path id="Path_122" data-name="Path 122" d="M519.585,1317.779s-2.875,9.1-12.745,11.171c0,0-16.3-5.023-8.186-16.129C498.654,1312.821,506.68,1306.859,519.585,1317.779Z" transform="translate(-483.302 -1268.816)" fill="#f5f5f5"/>
        <path id="Path_123" data-name="Path 123" d="M917.6,1304.132h0a2.455,2.455,0,0,0-.086-.739s-2.322-3.678-3.086-3.829c-2.323-.464-2.323,2.6-1.828,4.565a8.01,8.01,0,0,0,1.921,3.4h0l-.093,2.877A6.175,6.175,0,0,0,917.6,1304.132Z" transform="translate(-802.652 -1259.848)" fill="#f4dbcb"/>
      </g>
      <path id="Path_124" data-name="Path 124" d="M80.94,1003.092c.929-22.933-18.3-33.122-37.952-33.122s-41.043,5.091-42.9,35.588c-1.191,19.617,9.266,31.689,39.38,31.689,10.158,0,18.052-1.6,24.1-4.457l15.054,13.375-7.4-18.489C77.779,1021.582,80.538,1012.99,80.94,1003.092Z" transform="translate(-0.001 -744.71)" fill="#fefefe" opacity="0.35"/>
      <path id="Path_125" data-name="Path 125" d="M116.078,1079.57v5.358h3.5v-5.358H121v12.5h-1.428v-5.841h-3.5v5.841H114.65v-12.5Z" transform="translate(-88.024 -828.857)" fill="#8aace0"/>
      <path id="Path_126" data-name="Path 126" d="M150.447,1098.927c0,2.761,1.094,3.337,2.113,3.337a3.2,3.2,0,0,0,1.484-.334l.232,1.038a4.587,4.587,0,0,1-1.983.427c-2.151,0-3.263-1.762-3.263-4.5,0-2.894,1.242-4.71,3.04-4.71s2.555,1.927,2.555,3.929c0,.353-.019.595-.037.818Zm2.817-1.057c.019-1.781-.648-2.578-1.333-2.578-.948,0-1.41,1.354-1.465,2.578Z" transform="translate(-114.42 -840.074)" fill="#8aace0"/>
      <path id="Path_127" data-name="Path 127" d="M179.8,1078.14h1.426v12.829H179.8Z" transform="translate(-138.044 -827.759)" fill="#8aace0"/>
      <path id="Path_128" data-name="Path 128" d="M195,1078.14h1.428v12.829H195Z" transform="translate(-149.714 -827.759)" fill="#8aace0"/>
      <path id="Path_129" data-name="Path 129" d="M214.514,1098.8c0,3.467-1.593,4.645-2.984,4.645-1.626,0-2.91-1.465-2.91-4.617,0-3.263,1.463-4.645,3-4.645C213.235,1094.18,214.514,1095.683,214.514,1098.8Zm-4.468,0c0,1.482.26,3.5,1.558,3.5,1.224,0,1.482-2.09,1.482-3.5,0-1.373-.258-3.484-1.519-3.484S210.046,1097.424,210.046,1098.8Z" transform="translate(-160.171 -840.074)" fill="#8aace0"/>
      <path id="Path_130" data-name="Path 130" d="M2018.984,1288.512c4.264,7.543,9.673,10.483,9.673,10.483l22.587.158S2015.73,1282.757,2018.984,1288.512Z" transform="translate(-1549.94 -988.334)" fill="#3a3434"/>
      <path id="Path_131" data-name="Path 131" d="M2030.775,1481.158a2.086,2.086,0,0,1,.357,2.236c-.548,1.484-2.341,3.133-4.413,4.78-.264.211-.5.4-.708.583-.053.046-.109.093-.158.14l-.123.109c-1.942,1.763-1.219,2.176-4.707,5.757-3.978,4.083-6.7,4.136-7.469,3.758-.652-.325.7-2.494,2.183-4.933.073-.119.144-.232.219-.355l.593-.98c1.746-2.935,1.314-4.322.929-8.713-.309-3.567-5.407-19.957-5.407-19.957l7.578-1.251s2.188,13.038,4.685,15.061c1.335,1.08,2.838,1.1,4.122,1.9.091.056.181.114.267.172A9.93,9.93,0,0,1,2030.775,1481.158Z" transform="translate(-1544.793 -1122.726)" fill="#f4dbcb"/>
      <path id="Path_132" data-name="Path 132" d="M2035.115,1537.242a2.084,2.084,0,0,1,.358,2.237c-.669,1.482-2.417,3.124-4.426,4.766-.263.214-.5.411-.7.6-.054.046-.109.093-.158.14l-.123.109c-1.941,1.763-1.219,2.176-4.707,5.757-3.979,4.082-6.7,4.136-7.469,3.758-.652-.325.7-2.494,2.183-4.932a16.833,16.833,0,0,0,7.076-5.14c2.4-3.019,4.013-6.9,5.648-9.152.091.056.181.114.267.172A9.922,9.922,0,0,1,2035.115,1537.242Z" transform="translate(-1549.134 -1178.811)" fill="#3a3434"/>
      <path id="Path_133" data-name="Path 133" d="M1754.964,1467.255c-.482,2.322-3.81,1.92-7.524.984s-2.838.151-8.129-.464-6.881-2.611-7.039-3.4c-.139-.7,2.48-.929,5.288-1.231.353-.037.7-.079,1.064-.121,3.17-.374,5.506-2.4,8.4-4.062,2.738-1.573,6.851-8.024,6.851-8.024l7.257.627s-3.851,5.762-5.341,8.268a8.765,8.765,0,0,0-.748,4.944A9.346,9.346,0,0,1,1754.964,1467.255Z" transform="translate(-1329.971 -1113.981)" fill="#f4dbcb"/>
      <path id="Path_134" data-name="Path 134" d="M1747.409,1508.594c-3.715-.929-2.837.151-8.128-.465s-6.881-2.61-7.039-3.4c-.139-.7,2.48-.929,5.288-1.23l.026.053a14.938,14.938,0,0,0,7.566,2.411c3.593.112,7.4-.89,9.886-.832a9.324,9.324,0,0,1-.074,2.483C1754.451,1509.942,1751.123,1509.529,1747.409,1508.594Z" transform="translate(-1329.948 -1154.335)" fill="#3a3434"/>
      <path id="Path_135" data-name="Path 135" d="M1951.21,1283.859l6.66,18.314,8.693,23.921a14.366,14.366,0,0,0,4.712-.4,20.371,20.371,0,0,0,4.57-2.185s-2.281-25.625-6.768-40.359c-1.161-3.783-2.448-6.844-3.89-8.572C1958.129,1266.114,1951.21,1283.859,1951.21,1283.859Z" transform="translate(-1498.067 -976.821)" fill="#3a3434"/>
      <path id="Path_136" data-name="Path 136" d="M1847.636,1186.733c4.459-1.393,17.13.528,29.854,3.112l2.7-4.382,27.538-1.953s8.939,20.2,3.876,33c-.743,1.881-2.555,2.664-5.035,2.687h0s-16.427.286-21.745.249c-13.687-.1-28.9-9.612-30.874-10.023-3.232-.669-4.57,5.792-7.854,12.564s-30.626,29.873-30.626,29.873-4.18.012-5.9-.646a5.744,5.744,0,0,1-2.525-1.625S1837.585,1189.894,1847.636,1186.733Z" transform="translate(-1387.386 -908.658)" fill="#514d4d"/>
      <path id="Path_137" data-name="Path 137" d="M2100.474,881.74c9.754,5.464,29.567,16.791,29.669,16.721,0,0,7.29,2.805,11.454.081,6.944-4.54,10.737-16.863-1.825-27.581-6.27-5.341-10.734-6.667-11.355-15.137-.335-4.594-6.5-19.794-16.953-18.465a15.823,15.823,0,0,1-2.631.153,9.767,9.767,0,0,0-5.3,1.326C2097.611,842.322,2085.8,879.545,2100.474,881.74Z" transform="translate(-1607.243 -642.833)" fill="#cc4b42"/>
      <path id="Path_138" data-name="Path 138" d="M2155.5,958.489c-.044.026,4.81,1.721,8.072.3,3.07-1.331,5.425-6.349,5.379-6.354-1.393-.072-2.909-1.3-4.031-9.29l-.595.209-9.986,3.516s.7,3.2,1.145,6.252C2155.855,955.68,2156.048,958.132,2155.5,958.489Z" transform="translate(-1654.022 -724.119)" fill="#f4dbcb"/>
      <path id="Path_139" data-name="Path 139" d="M2154.31,947.536s.428,2.246,1.017,5.453c5.735-.989,8.149-5.881,8.976-8.969Z" transform="translate(-1654 -724.786)" fill="#d1beb4"/>
      <path id="Path_140" data-name="Path 140" d="M2125.055,893.593s13.65-1.735,12.44-10.218-.265-14.422-9.032-13.674-9.985,4.226-10.278,7.157S2121.474,893.825,2125.055,893.593Z" transform="translate(-1626.251 -667.678)" fill="#f4dbcb"/>
      <path id="Path_141" data-name="Path 141" d="M2120.52,869.714s8.677,7.585,14.61,8.233,8.2-1.243,8.2-1.243a23.2,23.2,0,0,1-5.553-7.627,4.178,4.178,0,0,0-3.423-2.485C2130.112,866.188,2122.074,865.963,2120.52,869.714Z" transform="translate(-1628.057 -665.176)" fill="#cc4b42"/>
      <path id="Path_142" data-name="Path 142" d="M2120.6,872.534a21.526,21.526,0,0,0-3.876,4.891c-.9,2.016-1.2,6.848-.51,8.774,0,0-4.486-8.881-1.881-13.161C2117.113,868.5,2120.6,872.534,2120.6,872.534Z" transform="translate(-1622.68 -668.633)" fill="#cc4b42"/>
      <path id="Path_143" data-name="Path 143" d="M2109.278,1008.127c.218,27.608-.042,21.83,2.961,24.48.722.634,2.766,1.024,5.457,1.222,8.461.622,23.35-.667,23.921-2.227,1.99-5.4.624-7.09,2.323-15.367.176-.88.392-1.832.648-2.87,1.393-5.681,2.733-7.608-2.021-16.786-4.313-8.314-8.8-15.068-9.213-14.828-11.58,6.763-12.466,1-12.466,1S2109.171,994.66,2109.278,1008.127Z" transform="translate(-1619.425 -753.749)" fill="#f5f5f5"/>
      <path id="Path_144" data-name="Path 144" d="M1979.891,1338.121l8.692,23.92a14.375,14.375,0,0,0,4.712-.4,20.359,20.359,0,0,0,4.57-2.185s-2.28-25.625-6.767-40.358Z" transform="translate(-1520.087 -1012.759)" fill="#514d4d"/>
      <path id="Path_145" data-name="Path 145" d="M2082.725,986.08s-11.876,1.928-13.3,7.025l-9.84,35.068s6.025,1.126,8.825-1.64,9.877-25.778,9.877-25.778Z" transform="translate(-1581.269 -757.079)" fill="#f5f5f5"/>
      <path id="Path_146" data-name="Path 146" d="M2145.53,1109.731c8.461.622,23.35-.667,23.921-2.227,1.99-5.4.624-7.09,2.323-15.367l-4-11.526s.586,12.808-3.214,16.15-15.505,6.391-17.36,9.19A10.313,10.313,0,0,0,2145.53,1109.731Z" transform="translate(-1647.259 -829.655)" fill="#cecac2"/>
      <path id="Path_147" data-name="Path 147" d="M2138.488,1178.657s-8.338-1.918-9.692-1.187-4.663,3.407-5.083,4.343,3-.7,4.117-.98c.72-.188,2.608.483,3.542.8a11.784,11.784,0,0,0,6.353.682Z" transform="translate(-1630.481 -903.893)" fill="#f4dbcb"/>
      <path id="Path_148" data-name="Path 148" d="M2188.907,981.74s11.207.771,15.051,6.213c5.412,7.664,16.025,40.216,9.778,44.5-7.03,4.831-31.849,1.052-31.849,1.052s-.8-3.869.365-5.731,19.876-4.75,20.745-5.607-10.664-16.9-10.648-19.489S2188.907,981.74,2188.907,981.74Z" transform="translate(-1674.966 -753.746)" fill="#f5f5f5"/>
      <path id="Path_149" data-name="Path 149" d="M2133.046,1188a16.21,16.21,0,0,1-2.341,2.51,1.715,1.715,0,0,1-.946.2l1.193-2.116Z" transform="translate(-1635.151 -912.105)" fill="#f4dbcb"/>
      <path id="Path_150" data-name="Path 150" d="M2128.83,1178l-5.109,2.434a.9.9,0,0,0,.841.332,12.259,12.259,0,0,0,2.21-.59Z" transform="translate(-1630.514 -904.428)" fill="#f4dbcb"/>
      <path id="Path_151" data-name="Path 151" d="M1966.158,1113.772l-40.245-.283L1914.02,1083.3l40.182.283Z" transform="translate(-1469.514 -831.721)" fill="#351fbb"/>
      <path id="Path_152" data-name="Path 152" d="M1963.24,1208.22l53.14.376-.006,1.173-52.671-.372Z" transform="translate(-1507.303 -927.629)" fill="#351fbb"/>
      <path id="Path_153" data-name="Path 153" d="M2009.187,1142.487a1.4,1.4,0,0,1,1.393-1.907,2.731,2.731,0,0,1,2.451,1.932,1.4,1.4,0,0,1-1.38,1.907A2.762,2.762,0,0,1,2009.187,1142.487Z" transform="translate(-1542.523 -875.698)" fill="#fefefe"/>
      <rect id="Rectangle_23" data-name="Rectangle 23" width="24.308" height="122.273" transform="translate(252.061 401.345) rotate(-89.99)" fill="#958ad9"/>
      <path id="Path_154" data-name="Path 154" d="M991.426,1647.869l-17.975-7.689L963,1635.709l10.7-4.573,17.731-7.576a36.8,36.8,0,0,1,2.4,11.484C993.888,1643.779,991.426,1647.869,991.426,1647.869Z" transform="translate(-739.356 -1246.512)" fill="#f5f5f5"/>
      <path id="Path_155" data-name="Path 155" d="M1626.118,1631.733v7.684a8.558,8.558,0,0,1-8.56,8.558H1611.9V1623.67h6.15A8.068,8.068,0,0,1,1626.118,1631.733Z" transform="translate(-1237.557 -1246.597)" fill="#f5f5f5"/>
      <path id="Path_156" data-name="Path 156" d="M973.717,1656.18c.443,2.457.831,6.219-.246,9.043l-10.451-4.47Z" transform="translate(-739.371 -1271.557)" fill="#514d4d"/>
      <path id="Path_157" data-name="Path 157" d="M1198.6,1069.118s2.19,9.5,8.574,9.5c5.472,0,12.98-12.371,12.98-12.371Z" transform="translate(-920.241 -818.63)" fill="#d1beb4"/>
      <path id="Path_158" data-name="Path 158" d="M1350.477,1284.27l-4.1,2.821s-19.74-21.027-24.489-41.183a31.3,31.3,0,0,1-.83-10.513s-.288-.912-.791-2.526c-.023-.073-.044-.144-.068-.216-.221-.7-.485-1.542-.78-2.485-.955-3.045-2.269-7.214-3.767-11.958-3.447-10.915-11.333-35.547-14.7-45.788l24.218-8.762s2.75,6.271,6.7,23.321c.609,2.225,1.219,4.687,1.789,7.367.645,3.038,1.249,6.359,1.751,9.944a152.675,152.675,0,0,1,1.452,20.416q.021,4.575-.233,9.478a42.511,42.511,0,0,0,.89,9.211C1340.561,1259.98,1350.477,1284.27,1350.477,1284.27Z" transform="translate(-998.821 -893.418)" fill="#514d4d"/>
      <path id="Path_159" data-name="Path 159" d="M1504.352,1693.039h-19.578s-.731-3.121.553-5.249c1.138-1.879.7-2.949-.141-4.505a7.6,7.6,0,0,0,3.3.62,6.877,6.877,0,0,0,2.912-1.024,71.444,71.444,0,0,0,5.574,5.862C1498.253,1689.662,1503.959,1689.334,1504.352,1693.039Z" transform="translate(-1139.795 -1292.056)" fill="#3a3434"/>
      <path id="Path_160" data-name="Path 160" d="M1335.409,1204.282l-15.212,28.361c-.221-.7-.485-1.542-.78-2.485-.955-3.045-2.269-7.213-3.767-11.958-3.447-10.915-11.333-35.546-14.7-45.788l24.218-8.762s2.75,6.27,6.7,23.321c.609,2.225,1.219,4.687,1.789,7.367C1334.3,1197.376,1334.908,1200.7,1335.409,1204.282Z" transform="translate(-998.821 -893.411)" fill="#3a3434"/>
      <path id="Path_161" data-name="Path 161" d="M1297.177,1698.488s-1.356,3.326-.079,6.129h10.65s.232-2.529-3.643-5.46C1301.177,1696.937,1297.177,1698.488,1297.177,1698.488Z" transform="translate(-995.444 -1303.634)" fill="#3a3434"/>
      <path id="Path_162" data-name="Path 162" d="M1303.491,745.734c0-.53.279-6.245,8.965-6.754,0,0-4.262.613-4.956,2.511,0,0,2.856-2.392,5.244-1.7s3.881,4.808,3.927,6.173-1.161,5.806-2.659,6.212a4.609,4.609,0,0,1-1.821.046,20.8,20.8,0,0,1,1.217,2.056c3.639,7.037.5,15.327-2.455,14.631-1.9-.448-3.047,2.838-3.047,2.838L1289.68,756.07S1296.064,742,1303.491,745.734Z" transform="translate(-990.169 -567.365)" fill="#cc4b42"/>
      <path id="Path_163" data-name="Path 163" d="M1299.82,893.344a22.365,22.365,0,0,0,7.736,3.293c11.923,2.754,16.489-7.323,18.208-14.241a10.245,10.245,0,0,0-4.039-1.24c-.861-.1-1.767-.169-2.518-.207-1.34-1.027-3.334-5.223-3.776-11.74l-.562.151-9.4,2.573s.432,2.987.641,5.806c.165,2.211.19,4.322-.232,4.838-.732.16-1.161.265-1.161.265h0A60.638,60.638,0,0,0,1299.82,893.344Z" transform="translate(-997.954 -667.35)" fill="#f4dbcb"/>
      <path id="Path_164" data-name="Path 164" d="M1324.16,872.426s.432,2.984.641,5.806c5.326-.532,7.794-5.6,8.758-8.381Z" transform="translate(-1016.641 -667.842)" fill="#d1beb4"/>
      <path id="Path_165" data-name="Path 165" d="M1296.6,825.866s12.257-3.152,10.179-10.755-1.9-13.129-9.812-11.44-8.634,5-8.558,7.713S1293.353,826.489,1296.6,825.866Z" transform="translate(-989.185 -616.798)" fill="#f4dbcb"/>
      <path id="Path_166" data-name="Path 166" d="M1283.378,802.584c1.256-2.8,2.822-2.694,3.809-2.225a8.845,8.845,0,0,1,11.449-1.259,15.091,15.091,0,0,0,7.1,7.274s-1.858,1.985-7.336,2.074a8.988,8.988,0,0,1-4.939-1.726,29.462,29.462,0,0,0,6.542,4.645c-6.9-1.15-11.7-8.993-12.192-9.826a9.98,9.98,0,0,0-1.688,4.278c-.076,2.1.746,6.161-.464,6.345C1285.67,812.159,1281.488,806.79,1283.378,802.584Z" transform="translate(-984.953 -612.325)" fill="#cc4b42"/>
      <path id="Path_167" data-name="Path 167" d="M1258.268,919.724s20.586-5,29.536,2.385l-4.472,62.386-40.261-9.726s1.133-3.948,8.853-14.445S1256.292,934.43,1258.268,919.724Z" transform="translate(-954.383 -704.864)" fill="#f4dbcb"/>
      <path id="Path_168" data-name="Path 168" d="M1262.958,1157.293s-.023.212-.065.616c-.019.172-.042.381-.067.627-.172,1.625-.5,4.719-.929,8.753-1.1,10.581-2.838,27.574-4.02,40.988-.929,10.488-1.51,18.788-1.193,20.121.954,4.011,0,51.953,0,51.953-3.421,1.642-8.609,0-8.609,0s-9.115-43.2-7.838-49.208a20.638,20.638,0,0,0-.855-11.131c-7.076-32.957-6.3-51.225-4.9-59.968a36.945,36.945,0,0,1,1.21-5.342,10.8,10.8,0,0,1,.486-1.312A33.315,33.315,0,0,1,1262.958,1157.293Z" transform="translate(-947.074 -884.606)" fill="#514d4d"/>
      <path id="Path_169" data-name="Path 169" d="M1277.665,941.484c-.992,7.506-4.968,16.688-6.389,21.633,0,0,2.373,17.165.109,21.877a2.092,2.092,0,0,1-.966,1.082c-8.4,3.658-41.09.107-42.469-10.439-.5-3.832,12.452-17.311,13.207-18.948.314-.676.648-2.868-.87-7.413-2.153,6.637-14.037,4.728-14.037,4.728,1.394-2.385,4.877-18.895,8.751-26.347,2.915-5.6,10.7-6.412,10.7-6.412s3.252,5.14,11.08,4.413,9.271-5.527,9.271-5.527,6.953.929,9.094,2.652C1275.522,923.08,1278.97,931.652,1277.665,941.484Z" transform="translate(-941.469 -706.445)" fill="#8aace0"/>
      <path id="Path_170" data-name="Path 170" d="M1387.482,1060.4s2.374,17.165.109,21.877c-6.117-3.07-10.938-11.38-9.823-20.627.822-6.837,2.044-8.4,5.7-12.309,2.687-2.875,8.9-3.038,8.416-1.67C1390.436,1051.752,1388.232,1057.791,1387.482,1060.4Z" transform="translate(-1057.676 -803.726)" fill="#351fbb"/>
      <path id="Path_171" data-name="Path 171" d="M1233.539,1017.84l14.018,22.487H1223.7l-13.353-22Z" transform="translate(-929.262 -781.463)" fill="#92ce51"/>
      <path id="Path_172" data-name="Path 172" d="M1323.489,1036.857l.241-.785-13.265-21.282-.265.708Z" transform="translate(-1005.923 -779.121)" fill="#cecac2"/>
      <path id="Path_173" data-name="Path 173" d="M1233.8,1014.79l-22.469.638-.985.555,23.189-.485Z" transform="translate(-929.262 -779.121)" fill="#f7f3e9"/>
      <path id="Path_174" data-name="Path 174" d="M1168.676,997.373l-12.606-6.823,14.693,23.075,11.266,5.75Z" transform="translate(-887.588 -760.511)" fill="#83ba46"/>
      <path id="Path_175" data-name="Path 175" d="M1380.923,1065.264c-1.349.618-4.816,4.7-6.052,5.109-5.573,1.858-29.231-3.091-29.231-3.091l.731-4.145s23.224.616,25.779-.067c.481-.13,2.991-4.055,3.948-4.619Z" transform="translate(-1033.133 -812.642)" fill="#f4dbcb"/>
      <path id="Path_176" data-name="Path 176" d="M1305.086,1072.56s-2.8-2.281-4.7-1.763-4.677,2.91-5.711,3.483-3.846,2.594-2.422,3.82,5.86.172,7.615-.766a9.111,9.111,0,0,1,4.48-.62Z" transform="translate(-991.845 -822.063)" fill="#f4dbcb"/>
      <path id="Path_177" data-name="Path 177" d="M1314.5,1069.446s-3.4-.406-4.334-.388-.678.233-.164.943,2.287,1,2.368,1.249S1314.5,1069.446,1314.5,1069.446Z" transform="translate(-1005.419 -820.785)" fill="#f4dbcb"/>
      <path id="Path_178" data-name="Path 178" d="M1387.8,920.12s10.1,1.2,12.878,5.527c3.516,5.476,11.811,27.279,11.544,32.773,0,0-6.066,10.323-26.865,8.669,0,0-2.164-7.643,2.211-10.165,0,0,10.683-1.9,11.914-2.984l-8.709-15.829Z" transform="translate(-1063.217 -706.437)" fill="#8aace0"/>
      <path id="Path_179" data-name="Path 179" d="M1203.773,1053.107c-.314-1.273-3.086-.478-4.022.253a3.928,3.928,0,0,0-.711.836c-.028-.211-.054-.416-.068-.576-.053-.6-.748-1.667-.929-.867s-.465,4.18-.465,4.18c-.033,2.713,1.709,3.832,2.831,2.949S1204.086,1054.38,1203.773,1053.107Z" transform="translate(-919.456 -808.023)" fill="#f4dbcb"/>
    </g>
  </g>
</svg>
