<svg xmlns="http://www.w3.org/2000/svg" xmlns:xlink="http://www.w3.org/1999/xlink" width="156" height="156" viewBox="0 0 156 156">
  <defs>
    <filter id="Ellipse_8" x="0" y="0" width="156" height="156" filterUnits="userSpaceOnUse">
      <feOffset dy="3" input="SourceAlpha"/>
      <feGaussianBlur stdDeviation="3" result="blur"/>
      <feFlood flood-color="#403838" flood-opacity="0.102"/>
      <feComposite operator="in" in2="blur"/>
      <feComposite in="SourceGraphic"/>
    </filter>
  </defs>
  <g id="Group_301" data-name="Group 301" transform="translate(-289 -513)">
    <g transform="matrix(1, 0, 0, 1, 289, 513)" filter="url(#Ellipse_8)">
      <circle id="Ellipse_8-2" data-name="Ellipse 8" cx="69" cy="69" r="69" transform="translate(9 6)" fill="#fefefe"/>
    </g>
    <g id="Group_293" data-name="Group 293">
      <path id="Path_258" data-name="Path 258" d="M33.542,112.575H1.756A1.756,1.756,0,0,1,0,110.819V54.607H35.3v56.212a1.756,1.756,0,0,1-1.756,1.756Z" transform="translate(329.579 503.798)" fill="#f5f5f5"/>
      <path id="Path_259" data-name="Path 259" d="M211.594,59.453v55.495a1.756,1.756,0,0,1-1.757,1.756h-2.912a1.756,1.756,0,0,0,1.757-1.756V59.453Z" transform="translate(153.284 499.669)" fill="#8aace0"/>
      <path id="Path_260" data-name="Path 260" d="M35.3,23.917H0V19a1.26,1.26,0,0,1,1.26-1.26H34.038A1.26,1.26,0,0,1,35.3,19v4.915Z" transform="translate(329.579 535.207)" fill="#5161ce"/>
      <path id="Path_261" data-name="Path 261" d="M214.39,19v4.915h-2.921V19a1.261,1.261,0,0,0-1.261-1.26h2.922A1.261,1.261,0,0,1,214.39,19Z" transform="translate(150.486 535.208)" fill="#351fbb"/>
      <path id="Path_262" data-name="Path 262" d="M6.99,23.917H0V19a1.26,1.26,0,0,1,1.26-1.26H6.99Z" transform="translate(329.579 535.207)" fill="#92ce51"/>
      <path id="Path_263" data-name="Path 263" d="M26.419,17.741H29.5v6.176h-3.08Z" transform="translate(307.07 535.207)" fill="#bdef88"/>
      <path id="Path_264" data-name="Path 264" d="M307.074,112.575H275.288a1.756,1.756,0,0,1-1.756-1.756V54.607h35.3v56.212a1.756,1.756,0,0,1-1.756,1.756Z" transform="translate(96.536 503.798)" fill="#f5f5f5"/>
      <path id="Path_265" data-name="Path 265" d="M485.126,59.453v55.495a1.756,1.756,0,0,1-1.757,1.756h-2.912a1.756,1.756,0,0,0,1.757-1.756V59.453Z" transform="translate(-79.759 499.669)" fill="#8aace0"/>
      <path id="Path_266" data-name="Path 266" d="M308.831,23.917h-35.3V19a1.26,1.26,0,0,1,1.26-1.26H307.57a1.26,1.26,0,0,1,1.26,1.26Z" transform="translate(96.536 535.207)" fill="#5161ce"/>
      <path id="Path_267" data-name="Path 267" d="M487.923,19v4.915H485V19a1.261,1.261,0,0,0-1.261-1.26h2.922A1.261,1.261,0,0,1,487.923,19Z" transform="translate(-82.557 535.208)" fill="#351fbb"/>
      <path id="Path_268" data-name="Path 268" d="M280.522,23.917h-6.99V19a1.26,1.26,0,0,1,1.26-1.26h5.73Z" transform="translate(96.536 535.207)" fill="#92ce51"/>
      <path id="Path_269" data-name="Path 269" d="M299.951,17.741h3.08v6.176h-3.08Z" transform="translate(74.027 535.207)" fill="#bdef88"/>
      <path id="Path_270" data-name="Path 270" d="M61.857,123.315H39.263a.733.733,0,0,1-.733-.733v-16.89a.733.733,0,0,1,.733-.733H61.857a.733.733,0,0,1,.733.733v16.89A.734.734,0,0,1,61.857,123.315Z" transform="translate(296.752 460.899)" fill="#8aace0"/>
      <path id="Path_271" data-name="Path 271" d="M180.148,105.69v16.89a.733.733,0,0,1-.733.733h-2.9a.733.733,0,0,0,.733-.733V105.69a.733.733,0,0,0-.733-.733h2.9A.733.733,0,0,1,180.148,105.69Z" transform="translate(179.195 460.9)" fill="rgba(81,97,206,0.35)"/>
      <path id="Path_272" data-name="Path 272" d="M62.589,106.284l-10.117,7.853,10.117,7.852v.593a.734.734,0,0,1-.734.732H60.566l-9.962-7.73-9.96,7.73H39.261a.734.734,0,0,1-.734-.732v-.52l10.212-7.925L38.527,106.21v-.519a.734.734,0,0,1,.734-.734h1.384l9.96,7.73,9.962-7.73h1.289a.734.734,0,0,1,.734.734Z" transform="translate(296.754 460.899)" fill="#5161ce"/>
      <path id="Path_273" data-name="Path 273" d="M55.7,258.834H31.945a1.144,1.144,0,0,1,0-2.288H55.7a1.144,1.144,0,0,1,0,2.288Z" transform="translate(303.337 331.751)" fill="#351fbb"/>
      <path id="Path_274" data-name="Path 274" d="M55.7,293.159H31.945a1.144,1.144,0,0,1,0-2.288H55.7a1.144,1.144,0,0,1,0,2.288Z" transform="translate(303.337 302.507)" fill="#351fbb"/>
      <path id="Path_275" data-name="Path 275" d="M55.7,327.484H31.945a1.144,1.144,0,1,1,0-2.288H55.7a1.144,1.144,0,1,1,0,2.288Z" transform="translate(303.337 273.262)" fill="#351fbb"/>
      <path id="Path_276" data-name="Path 276" d="M334.82,123.315H312.226a.733.733,0,0,1-.733-.733v-16.89a.733.733,0,0,1,.733-.733H334.82a.733.733,0,0,1,.733.733v16.89A.734.734,0,0,1,334.82,123.315Z" transform="translate(64.194 460.899)" fill="#8aace0"/>
      <path id="Path_278" data-name="Path 278" d="M335.558,105.692a.734.734,0,0,0-.734-.734h-1.289l-9.962,7.73-9.96-7.73H312.23a.733.733,0,0,0-.732.734v.52l10.21,7.925-10.21,7.924v.522a.733.733,0,0,0,.732.732h1.384l9.96-7.73,9.962,7.73h1.289a.734.734,0,0,0,.734-.732v-.593l-10.117-7.852,10.117-7.853Z" transform="translate(64.19 460.899)" fill="#5161ce"/>
      <path id="Path_279" data-name="Path 279" d="M328.667,258.834h-23.76a1.144,1.144,0,1,1,0-2.288h23.76a1.144,1.144,0,0,1,0,2.288Z" transform="translate(70.78 331.751)" fill="#351fbb"/>
      <path id="Path_280" data-name="Path 280" d="M328.667,293.159h-23.76a1.144,1.144,0,1,1,0-2.288h23.76a1.144,1.144,0,0,1,0,2.288Z" transform="translate(70.78 302.507)" fill="#351fbb"/>
      <path id="Path_281" data-name="Path 281" d="M328.667,327.484h-23.76a1.144,1.144,0,1,1,0-2.288h23.76a1.144,1.144,0,0,1,0,2.288Z" transform="translate(70.78 273.262)" fill="#351fbb"/>
      <path id="Path_282" data-name="Path 282" d="M328.667,361.262h-23.76a1.144,1.144,0,1,1,0-2.288h23.76a1.144,1.144,0,0,1,0,2.288Z" transform="translate(70.78 244.484)" fill="#351fbb"/>
      <path id="Path_283" data-name="Path 283" d="M328.667,395.271h-23.76a1.144,1.144,0,1,1,0-2.288h23.76a1.144,1.144,0,0,1,0,2.288Z" transform="translate(70.78 215.509)" fill="#351fbb"/>
      <path id="Path_284" data-name="Path 284" d="M157.81,376.858h0Zm18.719,8.317v4.943a2.173,2.173,0,0,1-2.171,2.169h-14.5a2.173,2.173,0,0,1-2.171-2.169v-13.26h-4.81a1.144,1.144,0,1,1,0-2.288h4.929a2.172,2.172,0,0,1,2.169,2.169V390h14.262v-4.824h2.288Z" transform="translate(200.303 231.196)" fill="#3a3434"/>
      <g id="Group_120" data-name="Group 120" transform="translate(335.113 604.069)">
        <path id="Path_285" data-name="Path 285" d="M55.8,368.783H38.123a.733.733,0,0,1-.733-.733v-4.217a.733.733,0,0,1,.733-.733H55.8a.733.733,0,0,1,.733.733v4.217A.733.733,0,0,1,55.8,368.783Z" transform="translate(-37.39 -363.099)" fill="#92ce51"/>
      </g>
      <g id="Group_121" data-name="Group 121" transform="translate(350.615 604.069)">
        <path id="Path_286" data-name="Path 286" d="M145.754,363.832v4.217a.733.733,0,0,1-.733.733h-2.9a.733.733,0,0,0,.733-.733v-4.217a.733.733,0,0,0-.733-.733h2.9A.733.733,0,0,1,145.754,363.832Z" transform="translate(-142.117 -363.099)" fill="#bdef88"/>
      </g>
    </g>
  </g>
</svg>
